<svg width="113" height="25" viewBox="0 0 113 25" fill="none" xmlns="http://www.w3.org/2000/svg">
<path d="M25 5.55654C24.1169 5.94873 23.168 6.21203 22.1724 6.3327C23.1899 5.72384 23.9688 4.75844 24.3363 3.60928C23.3846 4.17426 22.3288 4.58291 21.2098 4.80506C20.313 3.84789 19.0322 3.25 17.6171 3.25C14.8965 3.25 12.6915 5.45232 12.6915 8.173C12.6915 8.5597 12.7353 8.93544 12.8176 9.29473C8.72575 9.08903 5.09736 7.1308 2.67021 4.14958C2.24786 4.87637 2.00377 5.72384 2.00377 6.62616C2.00377 8.33481 2.87316 9.84051 4.19232 10.7236C3.38601 10.6989 2.62633 10.4768 1.96263 10.1065V10.1696C1.96263 12.5557 3.66027 14.5441 5.9119 14.9966C5.50051 15.1091 5.06445 15.1694 4.61467 15.1694C4.29654 15.1694 3.98937 15.1392 3.69044 15.0816C4.31574 17.0371 6.13404 18.4605 8.28694 18.5017C6.60302 19.8209 4.48303 20.608 2.17381 20.608C1.77614 20.608 1.3867 20.5861 1 20.5395C3.18032 21.9354 5.76654 22.75 8.54748 22.75C17.6034 22.75 22.5564 15.2489 22.5564 8.74346C22.5564 8.52954 22.5509 8.31835 22.5427 8.10717C23.5053 7.41055 24.3418 6.54388 25 5.55654Z" fill="#1B1A1A"/>
<path d="M106.625 8.7714H102.79V6.2806C102.79 5.34518 103.418 5.12573 103.858 5.12573H106.559V1.01372L102.834 1C98.7035 1 97.7656 4.06686 97.7656 6.03098V8.7714H95.375V13.0069H97.7656V25H102.793V13.0096H106.185L106.625 8.7714Z" fill="#1B1A1A"/>
<path d="M57 6.76825C53.5638 6.76825 50.7683 9.5638 50.7683 13C50.7683 16.4362 53.5638 19.2293 57 19.2293C60.4362 19.2293 63.2293 16.4338 63.2293 13C63.2317 9.5638 60.4362 6.76825 57 6.76825ZM57 16.8536C54.8742 16.8536 53.1464 15.1258 53.1464 13C53.1464 10.8742 54.8742 9.14641 57 9.14641C59.1258 9.14641 60.8536 10.8742 60.8536 13C60.8536 15.1258 59.1258 16.8536 57 16.8536ZM62.0936 1H51.9064C48.0989 1 45 4.09889 45 7.90637V18.0936C45 21.9011 48.0989 25 51.9064 25H62.0936C65.9011 25 69 21.9011 69 18.0936V7.90637C69 4.09889 65.9035 1 62.0936 1ZM66.6243 18.0936C66.6243 20.5907 64.5907 22.6218 62.0936 22.6218H51.9064C49.4093 22.6218 47.3782 20.5907 47.3782 18.0936V7.90637C47.3782 5.4093 49.4093 3.37816 51.9064 3.37816H62.0936C64.5907 3.37816 66.6218 5.4093 66.6218 7.90637V18.0936H66.6243ZM63.3167 4.96764C62.4188 4.96764 61.6859 5.69808 61.6859 6.59838C61.6859 7.49626 62.4164 8.22912 63.3167 8.22912C64.2146 8.22912 64.9474 7.49869 64.9474 6.59838C64.9474 5.69808 64.2146 4.96764 63.3167 4.96764Z" fill="#1B1A1A"/>
</svg>
