<svg width="64" height="64" fill="none" xmlns="http://www.w3.org/2000/svg"><path fill="#FF9209" d="M0 0h64v64H0z"/><g clip-path="url(#a)"><path d="m22.964 39.352.928-2.641h5.606l.927 2.642h2.985l-5.062-13.884h-3.287L20 39.352h2.964Zm5.768-4.866h-4.074l2.037-5.8 2.037 5.8Zm9.489 5.045c.833 0 1.57-.169 2.208-.506.638-.338 1.139-.765 1.502-1.281v1.608h2.843V28.35h-2.843v1.569c-.377-.503-.877-.92-1.502-1.251-.626-.332-1.355-.497-2.188-.497-.955 0-1.819.232-2.591.695-.773.464-1.385 1.126-1.835 1.986-.45.861-.676 1.848-.676 2.96 0 1.125.225 2.122.675 2.99.45.866 1.063 1.538 1.836 2.015.773.477 1.63.715 2.57.715Zm.746-2.443c-.511 0-.992-.132-1.442-.397a2.95 2.95 0 0 1-1.09-1.142c-.275-.497-.412-1.076-.412-1.738 0-.662.137-1.235.413-1.718.276-.484.635-.85 1.079-1.103a2.893 2.893 0 0 1 1.452-.377c.524 0 1.015.13 1.472.387.457.259.82.63 1.089 1.113s.403 1.062.403 1.738c0 .675-.134 1.254-.403 1.738a2.82 2.82 0 0 1-1.09 1.112 2.945 2.945 0 0 1-1.471.387Z" fill="#fff"/></g><defs><clipPath id="a"><path fill="#fff" transform="translate(20 20)" d="M0 0h24v25H0z"/></clipPath></defs></svg>